<svg xmlns="http://www.w3.org/2000/svg" viewBox="0 0 782.5 220.64"><defs><style>.cls-1{fill:#294885}.cls-2{fill:#255c9e}.cls-3{fill:#3979b5}.cls-4{fill:#f9b200}</style></defs><g id="Layer_2" data-name="Layer 2"><g id="Layer_1-2" data-name="Layer 1"><path class="cls-1" d="M122.8 100.74a9.91 9.91 0 0 1-.4-3.3c.2-.6.6-1.7.9-2.6 1.6-4.8.9-9.8.4-10.9a.55.55 0 0 0-.5-.3c-2.3-.4-4.2 1.1-6.6 3.9-.9 1.1-2 2-2.2.4-.2-1 .6-3.1-.3-3-2.2.2-3.6 1.5-4.9 3.1-1 1.3-1 1.9-2.1 2a24.46 24.46 0 0 0-5 .6 12.66 12.66 0 0 0-4.2 1.7c-1.3.8-2.2 2-5.3 2a113.19 113.19 0 0 0-13.3.6c-2.4.5-2.8 2-1.5 4.2 1.5 2.5 2 8 5.1 8.8.8 1.7 1.4 3.1 2.2 3 .3-.1.6-.9.8-1.7.4-1.7 2.1-1.8 3.2-1.8 2.8-.1 4.9 0 6.7 1.1 1.3.7 1.9 2 1.7 2.5-.4.9-1.3-.3-6.1.6-2.7.5-4.3 2-7.7 2-5.1 0-7.6-3.5-8.5-6.6-.5-1.6-.8-3-2.6-1.3a6.49 6.49 0 0 0-.1 8.9 9.79 9.79 0 0 0 6.6 2.8 25.05 25.05 0 0 0 3.9 0 2.44 2.44 0 0 0 .2 2c.6.9 2.3 1.7 5.1.8 4-1.2 7.4-2.3 10.2-.2.5.4 1.1 1.1 1.1 1.5 0 .8-3 3.2-11.4 5.4-10.3 2.8-12.8 9.7-11.7 13.5.1.3.3.7.6.7s1.9-.9 2.8-1.1c1.8-.3 1 1 .8 2.6-.8 5.7 7.4 13 14.6 18 4 2.8 6.1 3.7 7.1 3.7s3.2-.8 7.1-3.7c11.2-8.3 18.7-19.9 17.5-26.1-.7-3.5-2.5-5.7-1.6-6.2s3.2 1 3.7.7c1.1-.7 1.6-7.2-.4-14-2.4-6.4-4.6-9-5.9-14.3zm-21.1-2.1c-1 .1-2.1-.4-1.9-.7a1 1 0 0 0 .2-1 1.29 1.29 0 0 0-1.9-.2c.5-1.2 2.2-1.9 3.6-1.9 2 0 2.4 1.1 2.3 2a2.64 2.64 0 0 1-2.3 1.8z"/><path class="cls-2" d="M37.6 165.44c-22 1.4-37.6-17.1-37.6-35.3 0-6.9 1-10.6 2.8-14.4 1.6-3.3 3.4-5.5 4.4-5.5s1.4 1.5 1.5 2.5c4.3 22.3 20 35.2 30.7 35.4 3.1.1 7-.7 7.3-2.2.5-2.2-3.3-6.8-3.3-15.6 0-3.5 1.6-10 11.3-10.3 8.6-.3 12.8 7.7 12.8 14.9.3 14.7-10.7 29.3-29.9 30.5z"/><path class="cls-3" d="M8.8 97.24c1.8-13 9.1-22.7 17.2-27.3 13-7.4 25.9-4.6 34.9-2.6 1.3.3 2.4.1 2.8-.7s.1-1.4-1-2.6c-4.2-4.5-14-14.2-15.2-15.2-3-2.5-7.9-3.9-11.7-3.9-22 0-35.8 16.7-35.8 35.3a43.15 43.15 0 0 0 2.9 14.7c1.4 3.3 2.9 6.2 4.1 6.2 1.5 0 1.6-2 1.8-3.9zM135 61.34c-.6-.5-.8-1.4-.6-2.8.9-9.3 0-18.5-1.9-22.8-2.4-5.5-8.1-13.6-12.6-18.3-5.8-6.1-7.9-7.8-10.6-9.8-.7-.5-2.1-1.3-2.1-2s1.1-1.5 2.5-2.2a33.08 33.08 0 0 1 12.9-3.3c8-.7 19.4 1 28.1 12.1 4.9 6.2 5.5 13.7 5.5 18.8 0 6.1-1 11.5-3.9 14.7-4.3 4.7-13.4 13.8-14.6 14.8-.5.5-1.9 1.5-2.7.8z"/><path class="cls-2" d="M69.2 61.34c.6-.5.8-1.4.6-2.8-.9-9.3 0-18.5 1.9-22.8 2.4-5.5 8.1-13.6 12.6-18.3 5.8-6.1 7.9-7.8 10.6-9.8.7-.5 2.1-1.3 2.1-2s-1.1-1.5-2.5-2.2A33.08 33.08 0 0 0 81.6.14c-8-.7-19.4 1-28.1 12.1C48.6 18.44 48 25.94 48 31c0 6.1 1 11.5 3.9 14.7 4.3 4.7 13.4 13.8 14.6 14.8.5.5 1.9 1.5 2.7.8z"/><path class="cls-4" d="M44.6 70.14c9.8 0 22 3.4 26.3 6.7 1.4 1 1.8 2.6-.1 4.5l-9.5 9.5c-1.8 1.8-2.5 2.9-2.5 6.6V112c0 1.8-.7 2.5-3.3 2.8-.7.1-2 .2-3.1.3a14.34 14.34 0 0 0-11.4 6.7c-4.2 6.5-1.6 15-.5 18.2.8 2.4.7 3.8-2.9 3.1-9.9-2-25.2-20.2-24.3-40.4 1-20.9 14.8-32.6 31.3-32.6z"/><path class="cls-3" d="M166.6 165.44c22 1.4 37.6-17.1 37.6-35.3 0-6.9-1-10.6-2.8-14.4-1.6-3.3-3.4-5.5-4.4-5.5s-1.4 1.5-1.5 2.5c-4.3 22.3-20 35.2-30.7 35.4-3.1.1-7-.7-7.3-2.2-.5-2.2 3.3-6.8 3.3-15.6 0-3.5-1.6-10-11.3-10.3-8.6-.3-12.8 7.7-12.8 14.9-.3 14.7 10.7 29.3 29.9 30.5z"/><path class="cls-2" d="M195.4 97.24c-1.8-13-9.1-22.7-17.2-27.3-13-7.4-25.9-4.6-34.9-2.6-1.3.3-2.4.1-2.8-.7s-.1-1.4 1-2.6c4.2-4.5 14-14.2 15.2-15.2 3-2.5 7.9-3.9 11.7-3.9 22 0 35.8 16.7 35.8 35.3a43.15 43.15 0 0 1-2.9 14.7c-1.4 3.3-2.9 6.2-4.1 6.2-1.5 0-1.6-2-1.8-3.9z"/><path class="cls-4" d="M159.6 70.14c-9.8 0-22 3.4-26.3 6.7-1.4 1-1.8 2.6.1 4.5l9.5 9.5c1.8 1.8 2.5 2.9 2.5 6.6V112c0 1.8.7 2.5 3.3 2.8.7.1 2 .2 3.1.3a14.34 14.34 0 0 1 11.4 6.7c4.2 6.5 1.6 15 .5 18.2-.8 2.4-.7 3.8 2.9 3.1 9.9-2 25.2-20.2 24.3-40.4-1-20.9-14.8-32.6-31.3-32.6zm-40.3 102.1a90.39 90.39 0 0 0 11.7-10.4c1.9-1.9 4.1-2.2 6.4 0a19.6 19.6 0 0 0 12.8 6c2.3.2 3.5-.5 5.1.2.8.4 1.6 1.5 1.7 3.4.2 7.5-3.4 16.3-14.3 18.2-7.1 1.3-14.2-.9-17.7-4.2a59.22 59.22 0 0 1-6.6-6.9c-1.7-2-1.6-4.5.9-6.3zm-34.3 0a90.39 90.39 0 0 1-11.7-10.4c-1.9-1.9-4.1-2.2-6.4 0a19.6 19.6 0 0 1-12.8 6c-2.3.2-3.5-.5-5.1.2-.8.4-1.6 1.5-1.7 3.4-.2 7.5 3.4 16.3 14.3 18.2 7.1 1.3 14.2-.9 17.7-4.2a59.22 59.22 0 0 0 6.6-6.9 4.13 4.13 0 0 0-.9-6.3z"/><path d="M75.5 40.44c.9-4.7 6.8-13.6 12.6-19.6s11-10.9 14.1-10.9 8.2 4.8 14.1 10.9c5.7 6 11.6 14.9 12.6 19.6s2.2 14.5-1.2 28.7c-1 4-3.2 4.4-5.7 4.4H82.5c-2.5 0-4.7-.4-5.7-4.4-3.6-14.2-2.3-24-1.3-28.7zm26.6 140.4c2.8 0 5-1.7 6.9-2 1.6-.2 2.7.3 4.1 1.8 2.1 2.1 5.2 5.5 7.3 8 1.5 1.8 3.5 4.8.7 11.9-3.4 8.7-15.5 20.1-19.1 20.1s-15.7-11.4-19.1-20.1c-2.8-7.1-.7-10.1.7-11.9a93.74 93.74 0 0 1 7.3-8c1.5-1.5 2.5-2 4.1-1.8 2.1.3 4.3 2 7.1 2z" fill="#f49e00"/><path class="cls-1" d="M299.2 72c-15.4 0-17.8 6.1-17.8 9.8 0 17.5 44.7 12.5 44.7 46 0 22.3-19.2 32.9-43.9 32.9-21.7 0-27.1-10.7-27.1-20.1a17 17 0 0 1 .5-5c.5-1.5 1.5-2.3 3.7-1.2a49.28 49.28 0 0 0 22.1 5.3c11.3 0 20.1-3.2 20.1-11 0-17.7-44.7-14-44.7-46.8 0-20.7 14.8-31 43.9-31a81.36 81.36 0 0 1 18 2 2.16 2.16 0 0 1 1.8 2.6L318 71.94c-.3 1.8-1.2 2-2.9 1.7A86.39 86.39 0 0 0 299.2 72zm216.9-20.3c15.3 0 18.9 5.2 22.1 14l27.4 77c2.9 7.9 5.2 11.4 6.7 13.6a1.34 1.34 0 0 1-.2 2c-2 1.5-5.8 3.2-12 3.2-10.5 0-16.8-3.8-19.8-12.8l-3.4-10.1a2.43 2.43 0 0 0-2.7-2h-40.1c-1.4 0-2 .6-2.4 2l-6.3 18.4a2.94 2.94 0 0 1-3.1 2.1H462a2.56 2.56 0 0 1-2.4-3.5L489 72.54c-8.1-1.2-11.7-6.3-12.7-17.5-.2-1.8 1.1-2.6 2.9-2.6 12.8.1 24.2-.7 36.9-.7zm14.2 61.9-12-38.3c-.8-2.4-1.8-3.5-3.8-3.5h-2l-13.5 42c-.3 1.1.2 1.7 1.4 1.7H529c1.3.04 1.6-.56 1.3-1.86zm49-58.5c-.2-1.8 1.1-2.6 2.9-2.6 8.1-.2 14.9-.8 21-.8 7.5 0 12.7 4.1 12.7 12.7v53.4c0 14.3 7.3 21.8 20.3 21.8s20.3-7.5 20.3-21.8v-63a2.4 2.4 0 0 1 2.3-2.3h19.4a2.4 2.4 0 0 1 2.3 2.3v68c0 24.2-16.3 37.8-44.2 37.8-29.1 0-44.2-12.4-44.2-37.8V72.64c-8.2-1.2-11.9-6.2-12.8-17.5zm174.9 20.1v50.5c0 11.3 2.4 14 8.8 14.9a33.2 33.2 0 0 0 6.3.2c2.3-.3 3 1.1 2.6 3.8-1.2 7.5-8.4 16.2-20.9 16.2-14.8 0-20.7-7.8-20.7-27.8V75.24a1.42 1.42 0 0 0-1.5-1.5h-24.4a2.4 2.4 0 0 1-2.3-2.3v-16.6a2.4 2.4 0 0 1 2.3-2.3h75.8a2.4 2.4 0 0 1 2.3 2.3v16.6a2.4 2.4 0 0 1-2.3 2.3h-24.4a1.45 1.45 0 0 0-1.6 1.5zM368 51.74a12.14 12.14 0 0 1 12.5 12.5v36.4l33.4-45.1a7.25 7.25 0 0 1 6.4-3h18.8c2.7 0 4.1 2 2.4 4.3l-34.3 45.3a1.27 1.27 0 0 0 0 1.8c13.7 17.7 32 43.6 39.2 50.3 1.4 1.2.9 2.3 0 3a20.16 20.16 0 0 1-12.3 4.3c-11.4 0-17.5-4.7-23.9-13.9l-29.6-42.1v51.4a2.4 2.4 0 0 1-2.3 2.3h-19.4a2.4 2.4 0 0 1-2.3-2.3v-84.3c-8.1-1.2-11.7-6.3-12.7-17.5-.2-1.8 1.1-2.6 2.9-2.6 7.5 0 13.8-.8 21.2-.8z"/></g></g></svg>